<svg width="12" height="15" viewBox="0 0 12 15" fill="none" xmlns="http://www.w3.org/2000/svg">
<path d="M6 9.06875C5.4625 9.06875 5.0125 8.87552 4.65 8.48906C4.2875 8.10261 4.10625 7.63334 4.10625 7.08125V2.375C4.10625 1.85416 4.29026 1.41146 4.65827 1.04688C5.02628 0.682294 5.47316 0.5 5.99889 0.5C6.52463 0.5 6.97188 0.682294 7.34063 1.04688C7.70938 1.41146 7.89375 1.85416 7.89375 2.375V7.08125C7.89375 7.63334 7.7125 8.10261 7.35 8.48906C6.9875 8.87552 6.5375 9.06875 6 9.06875ZM5.4375 14.75V12.2C4.1125 12.0625 3 11.5063 2.1 10.5312C1.2 9.55625 0.75 8.40625 0.75 7.08125H1.875C1.875 8.21875 2.2768 9.175 3.0804 9.95C3.884 10.725 4.85588 11.1125 5.99603 11.1125C7.13618 11.1125 8.10938 10.725 8.91563 9.95C9.72188 9.175 10.125 8.21875 10.125 7.08125H11.25C11.25 8.40625 10.8 9.55625 9.9 10.5312C9 11.5063 7.8875 12.0625 6.5625 12.2V14.75H5.4375ZM6 7.94375C6.225 7.94375 6.40938 7.85938 6.55313 7.69063C6.69688 7.52188 6.76875 7.31875 6.76875 7.08125V2.375C6.76875 2.1625 6.69508 1.98438 6.54773 1.84063C6.40039 1.69688 6.21781 1.625 6 1.625C5.78219 1.625 5.59961 1.69688 5.45228 1.84063C5.30492 1.98438 5.23125 2.1625 5.23125 2.375V7.08125C5.23125 7.31875 5.30313 7.52188 5.44688 7.69063C5.59063 7.85938 5.775 7.94375 6 7.94375Z" fill="#FFFFFF99"/>
</svg>
