<svg width="21" height="24" viewBox="0 0 21 24" fill="none" xmlns="http://www.w3.org/2000/svg">
<path d="M20.5499 5.50976C20.4948 4.97063 20.3171 4.48358 19.974 4.0578C19.6708 3.68102 19.2818 3.41146 18.9142 3.1082C18.7304 2.95811 18.2433 2.5507 18.1821 2.32096C18.1085 2.04221 18.2219 1.75733 18.4761 1.66543C18.859 1.53678 19.4992 1.53984 19.8699 1.56435C20.1854 1.58885 20.5101 1.47858 20.5224 1.34992C20.5346 1.22127 20.3478 1.03135 20.0996 0.973146C19.9036 0.927198 19.6034 0.856744 19.4227 0.737279C19.101 0.519791 18.7733 0.121574 18.326 0.0327408C17.6889 -0.0928508 17.2447 0.14608 17.0364 0.694394C16.7056 1.47858 16.92 2.48331 17.6154 3.21848C17.9278 3.5493 18.2923 3.83418 18.6415 4.13132C18.8989 4.35187 19.1255 4.59386 19.343 4.86342C19.925 5.5894 19.3093 6.9219 19.1623 7.07506C18.6477 7.60806 18.2004 7.70608 17.3121 7.66932C16.4391 7.63256 14.1754 6.46242 12.9777 6.42566C10.0125 6.33376 7.95401 7.70302 7.25866 8.05835C6.21717 8.59135 4.73458 8.62504 4.68863 8.64036C4.01778 8.69243 2.62709 8.74451 1.93787 8.98344C0.966829 9.253 0.44302 9.69717 0.0876874 10.6896C-0.0225881 11.1185 -0.04403 11.5075 0.112194 11.7434C0.45221 12.258 1.36811 12.6869 1.78471 12.9227C1.99913 13.0453 2.42185 12.8921 2.50456 12.8339C2.97017 12.5184 3.38064 12.2703 3.93201 12.1906C4.04842 12.1722 4.82647 12.0344 5.21856 12.3223C5.50344 12.5306 5.7485 12.6562 6.07014 12.8033C6.65827 13.0698 7.95401 13.4067 7.97851 13.4128C8.15312 13.4588 8.37673 13.5476 8.37673 13.7038C8.37673 13.9244 6.31826 15.6459 6.20492 15.6888C5.68723 15.9002 5.38704 16.2402 5.29208 16.7303C5.26145 16.8896 5.19099 17.055 5.10216 17.1867C4.76827 17.6707 3.28874 19.7721 2.89665 20.3479C2.70979 20.6175 2.51681 20.7523 2.25031 20.7952C1.86741 20.8564 1.57947 20.8656 1.41712 21.1383C1.31603 21.3129 1.38036 21.6529 1.44775 21.8734C1.52433 22.1246 1.31603 22.4371 1.30072 22.4738C1.11693 22.8322 1.04035 23.1753 1.06791 23.5214C1.0771 23.6623 1.08629 23.9901 1.3191 23.9993C1.5519 24.0115 1.61317 23.8614 1.64073 23.8063C1.67443 23.7389 1.80308 23.4602 1.83984 23.3928C1.98994 23.114 2.56276 22.5136 2.62709 22.4432C2.83232 22.2165 5.89553 17.9985 5.89553 17.9985C6.06401 17.7779 6.23861 17.5512 6.52349 17.441C6.91864 17.2878 7.18208 16.9723 7.25866 16.5557C7.27704 16.4638 8.49926 15.5265 9.02001 15.1313C9.20992 14.9873 10.3617 14.5248 10.3801 14.5309C10.3801 14.5401 9.32633 16.1268 8.99856 16.9692C8.94649 17.104 8.86072 17.5635 8.95568 17.7963C9.10271 18.1547 9.41822 18.3109 9.77662 18.2037C9.88689 18.17 9.98492 18.1149 10.0799 18.0628C10.1228 18.0383 10.1656 18.0168 10.2085 17.9954C10.2514 17.974 10.2912 17.9525 10.3341 17.9311C10.4321 17.879 10.5271 17.83 10.6221 17.7994C10.9743 17.683 11.3297 17.5727 11.685 17.4624L12.4049 17.2388C12.9072 17.0826 13.4096 16.9263 13.912 16.7732C14.0222 16.7395 14.1294 16.6997 14.2673 16.7027C14.3439 16.7027 14.4266 16.7334 14.4541 16.8467C14.4541 16.8528 14.5123 17.1959 14.7237 17.3337C14.8309 17.4042 15.0607 17.4593 15.2322 17.4532C15.3823 17.4471 15.5722 17.49 15.6702 17.5757L15.7958 17.683C15.8877 17.7595 16.0011 17.8024 16.0776 17.8239C16.1573 17.8453 16.3043 17.8453 16.3901 17.7565C16.482 17.6584 16.4483 17.4992 16.436 17.4501C16.4177 17.3828 16.3809 17.3307 16.3533 17.2847L16.2767 17.1653C16.2032 17.0489 16.1328 16.9325 16.0562 16.8161C15.8448 16.4944 15.6365 16.1759 15.4221 15.8573C15.1985 15.5265 14.8524 15.3947 14.399 15.4652C14.2244 15.4928 10.3923 16.6813 10.3648 16.6874C10.57 16.3106 11.7983 14.6136 12.1414 14.3992C12.3957 14.2491 12.5029 14.1051 12.9654 14.0255C13.8691 13.8723 15.8295 13.419 16.3166 13.0667C17.2631 12.3805 17.3397 10.8214 17.3244 10.5089C17.306 10.1965 17.4071 9.98204 17.6797 9.83807C17.8145 9.76762 19.2726 8.962 19.9863 7.77347C20.4151 7.07812 20.6357 6.33376 20.5499 5.50976Z" fill="white"/>
</svg>
