<svg width="22" height="15" viewBox="0 0 22 15" fill="none" xmlns="http://www.w3.org/2000/svg">
<path fill-rule="evenodd" clip-rule="evenodd" d="M20.8701 7.5C20.2301 6.39 16.7101 0.820001 10.7301 1C5.20007 1.14 2.00007 6 1.13007 7.5C0.951436 7.8094 0.951436 8.1906 1.13007 8.5C1.76007 9.59 5.13007 15 11.0201 15H11.2701C16.8001 14.86 20.0101 10 20.8701 8.5C21.0487 8.1906 21.0487 7.8094 20.8701 7.5ZM11.0001 11.5C9.06707 11.5 7.50007 9.933 7.50007 8C7.50007 6.067 9.06707 4.5 11.0001 4.5C12.9331 4.5 14.5001 6.067 14.5001 8C14.5001 9.933 12.9331 11.5 11.0001 11.5ZM11.0001 9.5C11.8285 9.5 12.5001 8.82843 12.5001 8C12.5001 7.17157 11.8285 6.5 11.0001 6.5C10.1716 6.5 9.50007 7.17157 9.50007 8C9.50007 8.82843 10.1716 9.5 11.0001 9.5Z" fill="#919EAB"/>
</svg>
