<svg width="186" height="45" viewBox="0 0 186 45" fill="none" xmlns="http://www.w3.org/2000/svg">
<g filter="url(#filter0_d_101_4334)">
<path d="M171.933 21.6046L159.204 13.7605L159.166 18.0664L166.012 22.4323L159.093 26.4962L159.053 31.0446L171.915 23.5756L171.933 21.6046Z" fill="white"/>
</g>
<g filter="url(#filter1_d_101_4334)">
<path d="M14.0834 21.4929L26.9472 13.8722L26.9096 18.1781L19.9887 22.4239L26.836 26.6079L26.7963 31.1563L14.0662 23.4639L14.0834 21.4929Z" fill="white"/>
</g>
<g filter="url(#filter2_d_101_4334)">
<path d="M51.736 19.0536C51.6422 18.9599 51.468 18.8326 51.2135 18.6718C50.9723 18.511 50.6709 18.357 50.3091 18.2096C49.9608 18.0488 49.579 17.9148 49.1636 17.8077C48.7483 17.7005 48.3263 17.6469 47.8976 17.6469C47.1339 17.6469 46.5645 17.7876 46.1894 18.0689C45.8142 18.3503 45.6267 18.7455 45.6267 19.2546C45.6267 19.5494 45.6936 19.7972 45.8276 19.9982C45.975 20.1858 46.1827 20.3532 46.4506 20.5006C46.7186 20.648 47.0535 20.782 47.4554 20.9025C47.8708 21.0231 48.3464 21.1504 48.8823 21.2844C49.579 21.4719 50.2087 21.6729 50.7714 21.8873C51.3475 22.1016 51.8298 22.3696 52.2183 22.6911C52.6202 23.0127 52.9284 23.4012 53.1428 23.8567C53.3571 24.2988 53.4643 24.8481 53.4643 25.5046C53.4643 26.2683 53.3169 26.9248 53.0222 27.4741C52.7408 28.01 52.3523 28.4454 51.8566 28.7804C51.3743 29.1153 50.8116 29.3632 50.1685 29.5239C49.5388 29.6713 48.8756 29.745 48.1789 29.745C47.1071 29.745 46.0487 29.5842 45.0037 29.2627C43.9586 28.9411 43.0208 28.4856 42.1902 27.8961L43.416 25.5046C43.5366 25.6252 43.751 25.786 44.0591 25.987C44.3807 26.1745 44.7558 26.3688 45.1845 26.5697C45.6133 26.7573 46.0889 26.9181 46.6114 27.0521C47.1339 27.186 47.6698 27.253 48.2191 27.253C49.7464 27.253 50.5101 26.764 50.5101 25.786C50.5101 25.4778 50.423 25.2166 50.2489 25.0022C50.0747 24.7879 49.8268 24.6003 49.5053 24.4395C49.1837 24.2787 48.7952 24.1314 48.3397 23.9974C47.8842 23.8634 47.3751 23.716 46.8124 23.5553C46.1291 23.3677 45.5329 23.1667 45.0238 22.9524C44.528 22.7246 44.1127 22.4634 43.7778 22.1686C43.4428 21.8605 43.1883 21.5121 43.0141 21.1236C42.8533 20.7217 42.773 20.246 42.773 19.6967C42.773 18.9733 42.9069 18.3302 43.1749 17.7675C43.4428 17.2048 43.8113 16.7359 44.2802 16.3607C44.7625 15.9856 45.3185 15.7042 45.9482 15.5167C46.5779 15.3157 47.2545 15.2152 47.978 15.2152C48.9828 15.2152 49.9072 15.376 50.7513 15.6975C51.5953 16.0057 52.3322 16.3741 52.9619 16.8028L51.736 19.0536ZM62.3985 15.3157H64.8502L70.2763 29.5842H67.4226L66.0962 26.0271H61.1123L59.806 29.5842H56.9523L62.3985 15.3157ZM65.5938 24.0778L63.6243 18.4709L61.5745 24.0778H65.5938ZM84.114 17.7474H79.5521V29.5842H76.7989V17.7474H72.237V15.3157H84.114V17.7474ZM94.3218 29.6847C93.2768 29.6847 92.3255 29.4837 91.4681 29.0818C90.624 28.6665 89.8939 28.1239 89.2776 27.454C88.6747 26.7707 88.2057 25.9936 87.8708 25.1228C87.5359 24.252 87.3684 23.361 87.3684 22.45C87.3684 21.4987 87.5426 20.5877 87.8909 19.7168C88.2526 18.846 88.7417 18.0756 89.3579 17.4057C89.9876 16.7359 90.7312 16.2066 91.5887 15.8181C92.4461 15.4162 93.3773 15.2152 94.3821 15.2152C95.4137 15.2152 96.3515 15.4296 97.1956 15.8583C98.053 16.2736 98.7832 16.8229 99.3861 17.5062C99.989 18.1895 100.458 18.9666 100.793 19.8374C101.128 20.7083 101.295 21.5925 101.295 22.4902C101.295 23.4414 101.121 24.3524 100.773 25.2233C100.424 26.0807 99.9421 26.8444 99.3258 27.5143C98.7095 28.1708 97.9727 28.7 97.1152 29.1019C96.2578 29.4904 95.3266 29.6847 94.3218 29.6847ZM90.1819 22.45C90.1819 23.0663 90.2757 23.6625 90.4633 24.2386C90.6508 24.8147 90.9188 25.3238 91.2671 25.7659C91.6289 26.208 92.0643 26.5631 92.5734 26.831C93.0959 27.099 93.6854 27.2329 94.3419 27.2329C95.0118 27.2329 95.6013 27.099 96.1104 26.831C96.6329 26.5497 97.0683 26.1812 97.4167 25.7257C97.7784 25.2702 98.0463 24.7611 98.2205 24.1984C98.4081 23.6223 98.5019 23.0395 98.5019 22.45C98.5019 21.8337 98.4014 21.2375 98.2004 20.6614C98.0129 20.0853 97.7382 19.5762 97.3765 19.134C97.0281 18.6919 96.5927 18.3436 96.0702 18.089C95.5611 17.8211 94.985 17.6871 94.3419 17.6871C93.672 17.6871 93.0758 17.8278 92.5533 18.1091C92.0308 18.3771 91.5954 18.7388 91.247 19.1943C90.8987 19.6364 90.6307 20.1456 90.4432 20.7217C90.269 21.2844 90.1819 21.8605 90.1819 22.45ZM114.938 19.0536C114.844 18.9599 114.67 18.8326 114.415 18.6718C114.174 18.511 113.873 18.357 113.511 18.2096C113.163 18.0488 112.781 17.9148 112.366 17.8077C111.95 17.7005 111.528 17.6469 111.1 17.6469C110.336 17.6469 109.766 17.7876 109.391 18.0689C109.016 18.3503 108.829 18.7455 108.829 19.2546C108.829 19.5494 108.896 19.7972 109.03 19.9982C109.177 20.1858 109.385 20.3532 109.653 20.5006C109.921 20.648 110.256 20.782 110.657 20.9025C111.073 21.0231 111.548 21.1504 112.084 21.2844C112.781 21.4719 113.411 21.6729 113.973 21.8873C114.549 22.1016 115.032 22.3696 115.42 22.6911C115.822 23.0127 116.13 23.4012 116.345 23.8567C116.559 24.2988 116.666 24.8481 116.666 25.5046C116.666 26.2683 116.519 26.9248 116.224 27.4741C115.943 28.01 115.554 28.4454 115.059 28.7804C114.576 29.1153 114.014 29.3632 113.37 29.5239C112.741 29.6713 112.078 29.745 111.381 29.745C110.309 29.745 109.251 29.5842 108.206 29.2627C107.161 28.9411 106.223 28.4856 105.392 27.8961L106.618 25.5046C106.739 25.6252 106.953 25.786 107.261 25.987C107.583 26.1745 107.958 26.3688 108.387 26.5697C108.815 26.7573 109.291 26.9181 109.813 27.0521C110.336 27.186 110.872 27.253 111.421 27.253C112.948 27.253 113.712 26.764 113.712 25.786C113.712 25.4778 113.625 25.2166 113.451 25.0022C113.277 24.7879 113.029 24.6003 112.707 24.4395C112.386 24.2787 111.997 24.1314 111.542 23.9974C111.086 23.8634 110.577 23.716 110.014 23.5553C109.331 23.3677 108.735 23.1667 108.226 22.9524C107.73 22.7246 107.315 22.4634 106.98 22.1686C106.645 21.8605 106.39 21.5121 106.216 21.1236C106.055 20.7217 105.975 20.246 105.975 19.6967C105.975 18.9733 106.109 18.3302 106.377 17.7675C106.645 17.2048 107.013 16.7359 107.482 16.3607C107.965 15.9856 108.521 15.7042 109.15 15.5167C109.78 15.3157 110.456 15.2152 111.18 15.2152C112.185 15.2152 113.109 15.376 113.953 15.6975C114.797 16.0057 115.534 16.3741 116.164 16.8028L114.938 19.0536ZM133.774 15.3157V29.5842H131.021V23.495H124.55V29.5842H121.776V15.3157H124.55V21.0834H131.021V15.3157H133.774ZM139.765 29.5842V15.3157H142.539V29.5842H139.765Z" fill="white"/>
</g>
<defs>
<filter id="filter0_d_101_4334" x="145.868" y="0.576113" width="39.2485" height="43.6529" filterUnits="userSpaceOnUse" color-interpolation-filters="sRGB">
<feFlood flood-opacity="0" result="BackgroundImageFix"/>
<feColorMatrix in="SourceAlpha" type="matrix" values="0 0 0 0 0 0 0 0 0 0 0 0 0 0 0 0 0 0 127 0" result="hardAlpha"/>
<feOffset/>
<feGaussianBlur stdDeviation="6.59221"/>
<feComposite in2="hardAlpha" operator="out"/>
<feColorMatrix type="matrix" values="0 0 0 0 0.121917 0 0 0 0 0.870833 0 0 0 0 0 0 0 0 0.8 0"/>
<feBlend mode="normal" in2="BackgroundImageFix" result="effect1_dropShadow_101_4334"/>
<feBlend mode="normal" in="SourceGraphic" in2="effect1_dropShadow_101_4334" result="shape"/>
</filter>
<filter id="filter1_d_101_4334" x="0.881746" y="0.687777" width="39.2499" height="43.653" filterUnits="userSpaceOnUse" color-interpolation-filters="sRGB">
<feFlood flood-opacity="0" result="BackgroundImageFix"/>
<feColorMatrix in="SourceAlpha" type="matrix" values="0 0 0 0 0 0 0 0 0 0 0 0 0 0 0 0 0 0 127 0" result="hardAlpha"/>
<feOffset/>
<feGaussianBlur stdDeviation="6.59221"/>
<feComposite in2="hardAlpha" operator="out"/>
<feColorMatrix type="matrix" values="0 0 0 0 0.121917 0 0 0 0 0.870833 0 0 0 0 0 0 0 0 0.8 0"/>
<feBlend mode="normal" in2="BackgroundImageFix" result="effect1_dropShadow_101_4334"/>
<feBlend mode="normal" in="SourceGraphic" in2="effect1_dropShadow_101_4334" result="shape"/>
</filter>
<filter id="filter2_d_101_4334" x="33.4526" y="6.47759" width="117.824" height="32.005" filterUnits="userSpaceOnUse" color-interpolation-filters="sRGB">
<feFlood flood-opacity="0" result="BackgroundImageFix"/>
<feColorMatrix in="SourceAlpha" type="matrix" values="0 0 0 0 0 0 0 0 0 0 0 0 0 0 0 0 0 0 127 0" result="hardAlpha"/>
<feOffset/>
<feGaussianBlur stdDeviation="4.36881"/>
<feComposite in2="hardAlpha" operator="out"/>
<feColorMatrix type="matrix" values="0 0 0 0 0.121917 0 0 0 0 0.870833 0 0 0 0 0 0 0 0 0.8 0"/>
<feBlend mode="normal" in2="BackgroundImageFix" result="effect1_dropShadow_101_4334"/>
<feBlend mode="normal" in="SourceGraphic" in2="effect1_dropShadow_101_4334" result="shape"/>
</filter>
</defs>
</svg>
