<svg width="275" height="107" viewBox="0 0 275 107" fill="none" xmlns="http://www.w3.org/2000/svg">
<g filter="url(#filter0_d_101_6996)">
<path d="M31.965 20.353C31.596 19.9347 31.0978 19.5964 30.4704 19.3381C29.8553 19.0797 29.1603 18.9506 28.3853 18.9506C27.2166 18.9506 26.3678 19.172 25.8388 19.6149C25.3099 20.0454 25.0454 20.6359 25.0454 21.3863C25.0454 21.7799 25.113 22.1059 25.2484 22.3643C25.396 22.6103 25.6174 22.8256 25.9127 23.0101C26.2202 23.1946 26.6015 23.3546 27.0567 23.4899C27.5242 23.6252 28.0716 23.7605 28.699 23.8958C29.4002 24.0434 30.0275 24.2095 30.5811 24.394C31.1347 24.5663 31.6083 24.7938 32.0019 25.0768C32.3956 25.3474 32.697 25.6857 32.9061 26.0917C33.1152 26.4853 33.2198 26.9774 33.2198 27.5679C33.2198 28.1706 33.1029 28.6934 32.8692 29.1363C32.6355 29.5792 32.3095 29.9482 31.8912 30.2435C31.473 30.5387 30.9748 30.7601 30.3966 30.9077C29.8184 31.0431 29.191 31.1107 28.5144 31.1107C26.4601 31.1107 24.7071 30.4772 23.2555 29.2101L23.8829 28.1583C24.3627 28.6627 25.0085 29.0933 25.8204 29.45C26.6323 29.7944 27.5365 29.9667 28.5329 29.9667C29.5785 29.9667 30.3966 29.7821 30.9871 29.4131C31.5775 29.0317 31.8728 28.4597 31.8728 27.697C31.8728 27.2911 31.7867 26.9528 31.6144 26.6821C31.4545 26.3992 31.2085 26.1593 30.8763 25.9625C30.5442 25.7534 30.126 25.575 29.6216 25.4274C29.1295 25.2798 28.5575 25.1321 27.9055 24.9845C27.2166 24.8246 26.6138 24.6585 26.0972 24.4863C25.5805 24.3141 25.1438 24.0988 24.7871 23.8405C24.4426 23.5821 24.1781 23.2746 23.9936 22.9178C23.8214 22.5488 23.7353 22.0998 23.7353 21.5708C23.7353 20.968 23.846 20.4329 24.0674 19.9655C24.3011 19.4857 24.621 19.092 25.0269 18.7845C25.4452 18.4647 25.9373 18.2248 26.5031 18.0649C27.0813 17.8926 27.7148 17.8065 28.4037 17.8065C29.2648 17.8065 30.0337 17.9418 30.7103 18.2125C31.3992 18.4708 32.0204 18.8399 32.574 19.3196L31.965 20.353ZM54.1135 31V17.8988H59.5386C60.1044 17.8988 60.6211 18.0218 61.0886 18.2678C61.5683 18.5016 61.9804 18.8153 62.3249 19.2089C62.6693 19.5903 62.9338 20.027 63.1183 20.519C63.3151 21.0111 63.4136 21.5093 63.4136 22.0137C63.4136 22.555 63.3213 23.0778 63.1368 23.5821C62.9645 24.0742 62.7124 24.5109 62.3802 24.8923C62.0481 25.2736 61.6483 25.5811 61.1808 25.8149C60.7257 26.0486 60.2151 26.1655 59.6493 26.1655H55.3868V31H54.1135ZM55.3868 25.0214H59.5755C59.9568 25.0214 60.3013 24.9415 60.6088 24.7815C60.9286 24.6093 61.1993 24.3879 61.4207 24.1173C61.6421 23.8343 61.8143 23.5145 61.9374 23.1577C62.0604 22.7887 62.1219 22.4073 62.1219 22.0137C62.1219 21.6077 62.0481 21.2264 61.9005 20.8696C61.7651 20.5006 61.5745 20.1807 61.3284 19.9101C61.0947 19.6395 60.8118 19.4303 60.4796 19.2827C60.1598 19.1228 59.8215 19.0428 59.4647 19.0428H55.3868V25.0214ZM84.1189 31V17.9172H85.3921V31H84.1189ZM107.259 31V17.8988H112.776C113.342 17.8988 113.865 18.0218 114.344 18.2678C114.824 18.5016 115.236 18.8153 115.581 19.2089C115.925 19.5903 116.19 20.027 116.374 20.519C116.571 21.0111 116.669 21.5093 116.669 22.0137C116.669 22.4934 116.596 22.9548 116.448 23.3976C116.313 23.8282 116.116 24.2218 115.857 24.5786C115.599 24.923 115.292 25.2182 114.935 25.4643C114.578 25.698 114.178 25.8579 113.735 25.944L116.965 31H115.507L112.407 26.1655H108.532V31H107.259ZM108.532 25.0214H112.831C113.213 25.0214 113.557 24.9415 113.865 24.7815C114.184 24.6093 114.455 24.3817 114.676 24.0988C114.898 23.8159 115.07 23.496 115.193 23.1393C115.316 22.7825 115.378 22.4073 115.378 22.0137C115.378 21.62 115.304 21.2448 115.156 20.8881C115.021 20.519 114.83 20.1992 114.584 19.9286C114.35 19.6579 114.068 19.4426 113.735 19.2827C113.416 19.1228 113.077 19.0428 112.721 19.0428H108.532V25.0214ZM137.985 31V17.9172H139.258V31H137.985ZM170.443 19.0428H165.774V31H164.483V19.0428H159.814V17.8988H170.443V19.0428ZM219.079 31.0923C218.169 31.0923 217.332 30.9077 216.57 30.5387C215.819 30.1573 215.174 29.6591 214.632 29.044C214.091 28.4167 213.673 27.7032 213.378 26.9036C213.082 26.104 212.935 25.2859 212.935 24.4494C212.935 23.576 213.088 22.7395 213.396 21.9399C213.716 21.1403 214.153 20.4329 214.706 19.8178C215.26 19.2028 215.912 18.7169 216.662 18.3601C217.412 17.9911 218.224 17.8065 219.098 17.8065C220.008 17.8065 220.838 18.0034 221.589 18.397C222.352 18.7784 222.997 19.2827 223.526 19.9101C224.068 20.5375 224.486 21.251 224.781 22.0506C225.076 22.8379 225.224 23.6436 225.224 24.4678C225.224 25.3413 225.064 26.1778 224.744 26.9774C224.437 27.777 224.006 28.4843 223.453 29.0994C222.911 29.7022 222.265 30.1881 221.515 30.5571C220.765 30.9139 219.953 31.0923 219.079 31.0923ZM214.226 24.4494C214.226 25.1629 214.343 25.8518 214.577 26.5161C214.811 27.1681 215.143 27.7524 215.573 28.269C216.004 28.7734 216.514 29.1794 217.105 29.4869C217.695 29.7821 218.354 29.9298 219.079 29.9298C219.817 29.9298 220.488 29.7698 221.091 29.45C221.693 29.1302 222.204 28.7119 222.622 28.1952C223.04 27.6786 223.36 27.0942 223.582 26.4423C223.815 25.7903 223.932 25.126 223.932 24.4494C223.932 23.7359 223.809 23.0532 223.563 22.4012C223.33 21.7369 222.997 21.1526 222.567 20.6482C222.136 20.1438 221.626 19.744 221.035 19.4488C220.445 19.1413 219.793 18.9875 219.079 18.9875C218.341 18.9875 217.671 19.1474 217.068 19.4672C216.465 19.7748 215.955 20.1869 215.536 20.7036C215.118 21.2202 214.792 21.8046 214.558 22.4565C214.337 23.1085 214.226 23.7728 214.226 24.4494ZM246.257 31V17.8988H254.837V19.0428H247.53V23.8589H253.712V24.9292H247.53V31H246.257Z" fill="white"/>
</g>
<g filter="url(#filter1_d_101_6996)">
<path d="M43.3915 61.5344C43.1736 61.3165 42.769 61.0208 42.1776 60.6473C41.6173 60.2738 40.9169 59.9158 40.0765 59.5734C39.2672 59.1999 38.3801 58.8886 37.4152 58.6396C36.4503 58.3906 35.4698 58.2661 34.4737 58.2661C32.6995 58.2661 31.3766 58.5929 30.5051 59.2466C29.6335 59.9003 29.1977 60.8185 29.1977 62.0013C29.1977 62.6861 29.3534 63.2619 29.6646 63.7288C30.007 64.1646 30.4895 64.5537 31.112 64.8961C31.7346 65.2385 32.5127 65.5498 33.4465 65.8299C34.4115 66.11 35.5165 66.4057 36.7615 66.717C38.3801 67.1528 39.8431 67.6197 41.1504 68.1177C42.4888 68.6157 43.6094 69.2383 44.5121 69.9853C45.4459 70.7323 46.1618 71.635 46.6598 72.6933C47.1578 73.7205 47.4069 74.9967 47.4069 76.5219C47.4069 78.2961 47.0645 79.8213 46.3797 81.0975C45.726 82.3426 44.8233 83.3542 43.6717 84.1324C42.5511 84.9106 41.2438 85.4864 39.7497 85.8599C38.2867 86.2023 36.746 86.3735 35.1274 86.3735C32.6372 86.3735 30.1782 86 27.7503 85.253C25.3225 84.5059 23.1436 83.4476 21.2137 82.078L24.0618 76.5219C24.342 76.8021 24.84 77.1756 25.5559 77.6425C26.303 78.0783 27.1745 78.5296 28.1706 78.9965C29.1666 79.4323 30.2716 79.8058 31.4855 80.1171C32.6995 80.4283 33.9446 80.584 35.2208 80.584C38.7692 80.584 40.5434 79.4478 40.5434 77.1756C40.5434 76.4597 40.3411 75.8527 39.9365 75.3547C39.5318 74.8566 38.956 74.4209 38.2089 74.0473C37.4619 73.6738 36.5592 73.3314 35.5009 73.0202C34.4426 72.7089 33.2598 72.3665 31.9525 71.993C30.365 71.5572 28.9798 71.0903 27.797 70.5923C26.6453 70.0631 25.6804 69.4562 24.9023 68.7714C24.1241 68.0555 23.5327 67.2462 23.128 66.3435C22.7545 65.4097 22.5677 64.3047 22.5677 63.0285C22.5677 61.3476 22.879 59.8536 23.5015 58.5462C24.1241 57.2389 24.9801 56.1495 26.0695 55.2779C27.1901 54.4064 28.4818 53.7527 29.9448 53.317C31.4077 52.8501 32.9796 52.6166 34.6605 52.6166C36.995 52.6166 39.1427 52.9901 41.1037 53.7372C43.0647 54.4531 44.7767 55.3091 46.2396 56.3051L43.3915 61.5344ZM68.1635 52.8501H73.8597L86.466 86H79.836L76.7545 77.7359H65.1753L62.1405 86H55.5105L68.1635 52.8501ZM75.5872 73.2069L71.0116 60.1804L66.2492 73.2069H75.5872ZM118.615 58.4996H108.016V86H101.62V58.4996H91.0212V52.8501H118.615V58.4996ZM142.331 86.2335C139.903 86.2335 137.693 85.7665 135.701 84.8327C133.74 83.8678 132.043 82.6072 130.611 81.0509C129.211 79.4634 128.121 77.658 127.343 75.6348C126.565 73.6116 126.176 71.5416 126.176 69.425C126.176 67.215 126.581 65.0984 127.39 63.0752C128.23 61.0519 129.366 59.2622 130.798 57.7058C132.261 56.1495 133.989 54.92 135.981 54.0173C137.973 53.0835 140.136 52.6166 142.471 52.6166C144.868 52.6166 147.046 53.1146 149.007 54.1107C150.999 55.0756 152.696 56.3518 154.097 57.9393C155.497 59.5267 156.587 61.3321 157.365 63.3553C158.143 65.3786 158.532 67.4329 158.532 69.5184C158.532 71.7284 158.127 73.845 157.318 75.8683C156.509 77.8604 155.388 79.6346 153.957 81.1909C152.525 82.7161 150.813 83.9456 148.821 84.8794C146.828 85.7821 144.665 86.2335 142.331 86.2335ZM132.713 69.425C132.713 70.8569 132.93 72.242 133.366 73.5804C133.802 74.9189 134.424 76.1017 135.234 77.1289C136.074 78.1561 137.086 78.9809 138.269 79.6035C139.483 80.226 140.852 80.5373 142.377 80.5373C143.934 80.5373 145.303 80.226 146.486 79.6035C147.7 78.9498 148.712 78.0938 149.521 77.0355C150.361 75.9772 150.984 74.7944 151.389 73.4871C151.824 72.1486 152.042 70.7946 152.042 69.425C152.042 67.9932 151.809 66.6081 151.342 65.2696C150.906 63.9312 150.268 62.7483 149.428 61.7212C148.618 60.694 147.607 59.8847 146.393 59.2933C145.21 58.6707 143.871 58.3595 142.377 58.3595C140.821 58.3595 139.436 58.6863 138.222 59.34C137.008 59.9625 135.996 60.8029 135.187 61.8612C134.378 62.8884 133.755 64.0712 133.319 65.4097C132.915 66.717 132.713 68.0555 132.713 69.425ZM190.228 61.5344C190.01 61.3165 189.606 61.0208 189.014 60.6473C188.454 60.2738 187.754 59.9158 186.913 59.5734C186.104 59.1999 185.217 58.8886 184.252 58.6396C183.287 58.3906 182.306 58.2661 181.31 58.2661C179.536 58.2661 178.213 58.5929 177.342 59.2466C176.47 59.9003 176.034 60.8185 176.034 62.0013C176.034 62.6861 176.19 63.2619 176.501 63.7288C176.844 64.1646 177.326 64.5537 177.949 64.8961C178.571 65.2385 179.349 65.5498 180.283 65.8299C181.248 66.11 182.353 66.4057 183.598 66.717C185.217 67.1528 186.68 67.6197 187.987 68.1177C189.325 68.6157 190.446 69.2383 191.349 69.9853C192.282 70.7323 192.998 71.635 193.496 72.6933C193.994 73.7205 194.243 74.9967 194.243 76.5219C194.243 78.2961 193.901 79.8213 193.216 81.0975C192.563 82.3426 191.66 83.3542 190.508 84.1324C189.388 84.9106 188.08 85.4864 186.586 85.8599C185.123 86.2023 183.583 86.3735 181.964 86.3735C179.474 86.3735 177.015 86 174.587 85.253C172.159 84.5059 169.98 83.4476 168.05 82.078L170.898 76.5219C171.179 76.8021 171.677 77.1756 172.393 77.6425C173.14 78.0783 174.011 78.5296 175.007 78.9965C176.003 79.4323 177.108 79.8058 178.322 80.1171C179.536 80.4283 180.781 80.584 182.057 80.584C185.606 80.584 187.38 79.4478 187.38 77.1756C187.38 76.4597 187.178 75.8527 186.773 75.3547C186.368 74.8566 185.793 74.4209 185.046 74.0473C184.298 73.6738 183.396 73.3314 182.338 73.0202C181.279 72.7089 180.096 72.3665 178.789 71.993C177.202 71.5572 175.816 71.0903 174.634 70.5923C173.482 70.0631 172.517 69.4562 171.739 68.7714C170.961 68.0555 170.369 67.2462 169.965 66.3435C169.591 65.4097 169.404 64.3047 169.404 63.0285C169.404 61.3476 169.716 59.8536 170.338 58.5462C170.961 57.2389 171.817 56.1495 172.906 55.2779C174.027 54.4064 175.318 53.7527 176.781 53.317C178.244 52.8501 179.816 52.6166 181.497 52.6166C183.832 52.6166 185.979 52.9901 187.94 53.7372C189.901 54.4531 191.613 55.3091 193.076 56.3051L190.228 61.5344ZM233.99 52.8501V86H227.593V71.8529H212.559V86H206.116V52.8501H212.559V66.2501H227.593V52.8501H233.99ZM247.909 86V52.8501H254.352V86H247.909Z" fill="white"/>
</g>
<defs>
<filter id="filter0_d_101_6996" x="5.6452" y="0.19635" width="266.802" height="48.5245" filterUnits="userSpaceOnUse" color-interpolation-filters="sRGB">
<feFlood flood-opacity="0" result="BackgroundImageFix"/>
<feColorMatrix in="SourceAlpha" type="matrix" values="0 0 0 0 0 0 0 0 0 0 0 0 0 0 0 0 0 0 127 0" result="hardAlpha"/>
<feOffset/>
<feGaussianBlur stdDeviation="8.80508"/>
<feComposite in2="hardAlpha" operator="out"/>
<feColorMatrix type="matrix" values="0 0 0 0 0.121917 0 0 0 0 0.870833 0 0 0 0 0 0 0 0 1 0"/>
<feBlend mode="normal" in2="BackgroundImageFix" result="effect1_dropShadow_101_6996"/>
<feBlend mode="normal" in="SourceGraphic" in2="effect1_dropShadow_101_6996" result="shape"/>
</filter>
<filter id="filter1_d_101_6996" x="0.913841" y="32.3166" width="273.738" height="74.357" filterUnits="userSpaceOnUse" color-interpolation-filters="sRGB">
<feFlood flood-opacity="0" result="BackgroundImageFix"/>
<feColorMatrix in="SourceAlpha" type="matrix" values="0 0 0 0 0 0 0 0 0 0 0 0 0 0 0 0 0 0 127 0" result="hardAlpha"/>
<feOffset/>
<feGaussianBlur stdDeviation="10.15"/>
<feComposite in2="hardAlpha" operator="out"/>
<feColorMatrix type="matrix" values="0 0 0 0 0.121917 0 0 0 0 0.870833 0 0 0 0 0 0 0 0 0.8 0"/>
<feBlend mode="normal" in2="BackgroundImageFix" result="effect1_dropShadow_101_6996"/>
<feBlend mode="normal" in="SourceGraphic" in2="effect1_dropShadow_101_6996" result="shape"/>
</filter>
</defs>
</svg>
