<svg width="186" height="45" viewBox="0 0 186 45" fill="none" xmlns="http://www.w3.org/2000/svg">
<g filter="url(#filter0_d_46_5226)">
<path d="M171.933 21.5245L159.204 13.7142L159.166 18.0016L166.012 22.3487L159.093 26.3951L159.053 30.924L171.915 23.487L171.933 21.5245Z" fill="white"/>
</g>
<g filter="url(#filter1_d_46_5226)">
<path d="M14.0834 21.4133L26.9472 13.8254L26.9096 18.1128L19.9887 22.3403L26.836 26.5063L26.7963 31.0351L14.0662 23.3758L14.0834 21.4133Z" fill="white"/>
</g>
<g filter="url(#filter2_d_46_5226)">
<path d="M51.5987 18.9693C51.5049 18.8755 51.3308 18.7482 51.0762 18.5875C50.835 18.4267 50.5336 18.2726 50.1719 18.1252C49.8235 17.9779 49.4417 17.8506 49.0264 17.7434C48.611 17.6228 48.189 17.5625 47.7603 17.5625C47.01 17.5625 46.4406 17.7032 46.0521 17.9846C45.6769 18.2659 45.4894 18.6612 45.4894 19.1703C45.4894 19.5588 45.6099 19.8669 45.8511 20.0947C46.0923 20.3225 46.454 20.5167 46.9363 20.6775C47.4186 20.8383 48.0215 21.0124 48.745 21.2C49.6828 21.4278 50.4934 21.7091 51.1767 22.0441C51.8734 22.3656 52.4026 22.7943 52.7643 23.3302C53.1394 23.8528 53.327 24.5494 53.327 25.4203C53.327 26.184 53.1863 26.8404 52.905 27.3897C52.6236 27.9257 52.2351 28.3611 51.7394 28.696C51.2437 29.031 50.681 29.2788 50.0513 29.4396C49.4216 29.587 48.7517 29.6607 48.0416 29.6607C47.3316 29.6607 46.6215 29.587 45.9114 29.4396C45.2013 29.2922 44.518 29.0845 43.8616 28.8166C43.2051 28.5352 42.6022 28.2003 42.0529 27.8118L43.2788 25.4203C43.3993 25.5409 43.6137 25.7016 43.9218 25.9026C44.23 26.0902 44.6051 26.2844 45.0472 26.4854C45.4894 26.673 45.9717 26.8337 46.4942 26.9677C47.0167 27.1017 47.5459 27.1687 48.0818 27.1687C48.8321 27.1687 49.4015 27.0414 49.79 26.7868C50.1786 26.5323 50.3728 26.1706 50.3728 25.7016C50.3728 25.2729 50.2188 24.938 49.9106 24.6968C49.6025 24.4557 49.1737 24.248 48.6244 24.0738C48.0751 23.8862 47.4253 23.6853 46.6751 23.4709C45.7774 23.2164 45.0271 22.935 44.4243 22.6269C43.8214 22.3053 43.3725 21.9034 43.0778 21.4211C42.783 20.9388 42.6357 20.3359 42.6357 19.6124C42.6357 18.6344 42.8634 17.8171 43.3189 17.1606C43.7879 16.4907 44.4176 15.9883 45.208 15.6534C45.9985 15.305 46.876 15.1309 47.8407 15.1309C48.5105 15.1309 49.1402 15.2046 49.7297 15.3519C50.3326 15.4993 50.8953 15.6936 51.4178 15.9347C51.9404 16.1759 52.4093 16.4371 52.8246 16.7185L51.5987 18.9693ZM62.0018 15.2313H64.8153L70.0605 29.4999H67.2068L65.8804 25.9428H60.8965L59.5902 29.4999H56.7365L62.0018 15.2313ZM65.378 23.9934L63.4086 18.1051L61.3587 23.9934H65.378ZM83.9767 17.663H79.4148V29.4999H76.6616V17.663H72.0997V15.2313H83.9767V17.663ZM94.5181 29.6004C93.4731 29.6004 92.5219 29.3994 91.6644 28.9975C90.8204 28.5955 90.0902 28.0529 89.4739 27.3696C88.871 26.673 88.4021 25.8959 88.0672 25.0384C87.7322 24.1676 87.5647 23.2767 87.5647 22.3656C87.5647 21.4144 87.7389 20.51 88.0872 19.6526C88.449 18.7817 88.938 18.0114 89.5543 17.3415C90.184 16.6582 90.9209 16.1223 91.7649 15.7338C92.6224 15.3318 93.5602 15.1309 94.5784 15.1309C95.61 15.1309 96.5479 15.3385 97.3919 15.7539C98.2494 16.1692 98.9796 16.7252 99.5825 17.4219C100.185 18.1185 100.654 18.8956 100.989 19.7531C101.324 20.6105 101.492 21.4948 101.492 22.4058C101.492 23.3436 101.317 24.248 100.969 25.1188C100.621 25.9763 100.132 26.7467 99.5021 27.4299C98.8858 28.0998 98.1489 28.629 97.2915 29.0176C96.4474 29.4061 95.523 29.6004 94.5181 29.6004ZM90.3783 22.3656C90.3783 22.9819 90.472 23.5781 90.6596 24.1542C90.8472 24.7303 91.1151 25.2461 91.4635 25.7016C91.8252 26.1438 92.2606 26.4988 92.7697 26.7668C93.2922 27.0213 93.8817 27.1486 94.5382 27.1486C95.2081 27.1486 95.8043 27.0146 96.3268 26.7467C96.8493 26.4653 97.2848 26.0969 97.6331 25.6413C97.9814 25.1724 98.2427 24.6566 98.4169 24.0939C98.6044 23.5178 98.6982 22.9417 98.6982 22.3656C98.6982 21.7493 98.5977 21.1598 98.3968 20.5971C98.2092 20.021 97.9345 19.5119 97.5728 19.0698C97.2245 18.6143 96.789 18.2592 96.2665 18.0047C95.7574 17.7367 95.1813 17.6027 94.5382 17.6027C93.855 17.6027 93.2521 17.7434 92.7295 18.0248C92.2204 18.2927 91.7917 18.6545 91.4434 19.11C91.095 19.5655 90.8271 20.0746 90.6395 20.6373C90.4653 21.2 90.3783 21.7761 90.3783 22.3656ZM115.075 18.9693C114.982 18.8755 114.808 18.7482 114.553 18.5875C114.312 18.4267 114.01 18.2726 113.649 18.1252C113.3 17.9779 112.918 17.8506 112.503 17.7434C112.088 17.6228 111.666 17.5625 111.237 17.5625C110.487 17.5625 109.917 17.7032 109.529 17.9846C109.154 18.2659 108.966 18.6612 108.966 19.1703C108.966 19.5588 109.087 19.8669 109.328 20.0947C109.569 20.3225 109.931 20.5167 110.413 20.6775C110.895 20.8383 111.498 21.0124 112.222 21.2C113.16 21.4278 113.97 21.7091 114.653 22.0441C115.35 22.3656 115.879 22.7943 116.241 23.3302C116.616 23.8528 116.804 24.5494 116.804 25.4203C116.804 26.184 116.663 26.8404 116.382 27.3897C116.1 27.9257 115.712 28.3611 115.216 28.696C114.72 29.031 114.158 29.2788 113.528 29.4396C112.898 29.587 112.228 29.6607 111.518 29.6607C110.808 29.6607 110.098 29.587 109.388 29.4396C108.678 29.2922 107.995 29.0845 107.338 28.8166C106.682 28.5352 106.079 28.2003 105.53 27.8118L106.756 25.4203C106.876 25.5409 107.09 25.7016 107.399 25.9026C107.707 26.0902 108.082 26.2844 108.524 26.4854C108.966 26.673 109.448 26.8337 109.971 26.9677C110.493 27.1017 111.023 27.1687 111.559 27.1687C112.309 27.1687 112.878 27.0414 113.267 26.7868C113.655 26.5323 113.85 26.1706 113.85 25.7016C113.85 25.2729 113.696 24.938 113.387 24.6968C113.079 24.4557 112.65 24.248 112.101 24.0738C111.552 23.8862 110.902 23.6853 110.152 23.4709C109.254 23.2164 108.504 22.935 107.901 22.6269C107.298 22.3053 106.849 21.9034 106.555 21.4211C106.26 20.9388 106.112 20.3359 106.112 19.6124C106.112 18.6344 106.34 17.8171 106.796 17.1606C107.265 16.4907 107.894 15.9883 108.685 15.6534C109.475 15.305 110.353 15.1309 111.317 15.1309C111.987 15.1309 112.617 15.2046 113.206 15.3519C113.809 15.4993 114.372 15.6936 114.895 15.9347C115.417 16.1759 115.886 16.4371 116.301 16.7185L115.075 18.9693ZM133.912 15.2313V29.4999H131.158V23.4106H124.687V29.4999H121.914V15.2313H124.687V20.999H131.158V15.2313H133.912ZM139.903 29.4999V15.2313H142.676V29.4999H139.903Z" fill="white"/>
</g>
<defs>
<filter id="filter0_d_46_5226" x="145.868" y="0.529818" width="39.2485" height="43.5785" filterUnits="userSpaceOnUse" color-interpolation-filters="sRGB">
<feFlood flood-opacity="0" result="BackgroundImageFix"/>
<feColorMatrix in="SourceAlpha" type="matrix" values="0 0 0 0 0 0 0 0 0 0 0 0 0 0 0 0 0 0 127 0" result="hardAlpha"/>
<feOffset/>
<feGaussianBlur stdDeviation="6.59221"/>
<feComposite in2="hardAlpha" operator="out"/>
<feColorMatrix type="matrix" values="0 0 0 0 0.121917 0 0 0 0 0.870833 0 0 0 0 0 0 0 0 0.8 0"/>
<feBlend mode="normal" in2="BackgroundImageFix" result="effect1_dropShadow_46_5226"/>
<feBlend mode="normal" in="SourceGraphic" in2="effect1_dropShadow_46_5226" result="shape"/>
</filter>
<filter id="filter1_d_46_5226" x="0.881746" y="0.641024" width="39.2498" height="43.5785" filterUnits="userSpaceOnUse" color-interpolation-filters="sRGB">
<feFlood flood-opacity="0" result="BackgroundImageFix"/>
<feColorMatrix in="SourceAlpha" type="matrix" values="0 0 0 0 0 0 0 0 0 0 0 0 0 0 0 0 0 0 127 0" result="hardAlpha"/>
<feOffset/>
<feGaussianBlur stdDeviation="6.59221"/>
<feComposite in2="hardAlpha" operator="out"/>
<feColorMatrix type="matrix" values="0 0 0 0 0.121917 0 0 0 0 0.870833 0 0 0 0 0 0 0 0 0.8 0"/>
<feBlend mode="normal" in2="BackgroundImageFix" result="effect1_dropShadow_46_5226"/>
<feBlend mode="normal" in="SourceGraphic" in2="effect1_dropShadow_46_5226" result="shape"/>
</filter>
<filter id="filter2_d_46_5226" x="33.3152" y="6.39324" width="118.098" height="32.005" filterUnits="userSpaceOnUse" color-interpolation-filters="sRGB">
<feFlood flood-opacity="0" result="BackgroundImageFix"/>
<feColorMatrix in="SourceAlpha" type="matrix" values="0 0 0 0 0 0 0 0 0 0 0 0 0 0 0 0 0 0 127 0" result="hardAlpha"/>
<feOffset/>
<feGaussianBlur stdDeviation="4.36881"/>
<feComposite in2="hardAlpha" operator="out"/>
<feColorMatrix type="matrix" values="0 0 0 0 0.121917 0 0 0 0 0.870833 0 0 0 0 0 0 0 0 0.8 0"/>
<feBlend mode="normal" in2="BackgroundImageFix" result="effect1_dropShadow_46_5226"/>
<feBlend mode="normal" in="SourceGraphic" in2="effect1_dropShadow_46_5226" result="shape"/>
</filter>
</defs>
</svg>
