<svg width="188" height="45" viewBox="0 0 188 45" fill="none" xmlns="http://www.w3.org/2000/svg">
<g filter="url(#filter0_d_159_3143)">
<path d="M173.932 21.9995L161.042 13.9889L161.004 18.3862L167.936 22.8448L160.929 26.9949L160.889 31.6399L173.914 24.0123L173.932 21.9995Z" fill="white"/>
</g>
<g filter="url(#filter1_d_159_3143)">
<path d="M14.0845 21.8855L27.1111 14.103L27.0731 18.5003L20.0646 22.8362L26.9986 27.109L26.9584 31.754L14.0671 23.8983L14.0845 21.8855Z" fill="white"/>
</g>
<g filter="url(#filter2_d_159_3143)">
<path d="M52.7345 19.4694C52.6408 19.3756 52.4666 19.2483 52.212 19.0875C51.9709 18.9268 51.6694 18.7727 51.3077 18.6253C50.9593 18.4645 50.5775 18.3306 50.1622 18.2234C49.7469 18.1162 49.3248 18.0626 48.8961 18.0626C48.1324 18.0626 47.563 18.2033 47.1879 18.4846C46.8128 18.766 46.6252 19.1612 46.6252 19.6703C46.6252 19.9651 46.6922 20.2129 46.8262 20.4139C46.9735 20.6015 47.1812 20.7689 47.4491 20.9163C47.7171 21.0637 48.052 21.1977 48.454 21.3182C48.8693 21.4388 49.3449 21.5661 49.8808 21.7001C50.5775 21.8876 51.2072 22.0886 51.7699 22.303C52.346 22.5173 52.8283 22.7853 53.2169 23.1068C53.6188 23.4284 53.9269 23.8169 54.1413 24.2724C54.3557 24.7146 54.4628 25.2639 54.4628 25.9203C54.4628 26.684 54.3155 27.3405 54.0207 27.8898C53.7394 28.4257 53.3508 28.8611 52.8551 29.1961C52.3728 29.531 51.8101 29.7789 51.167 29.9396C50.5373 30.087 49.8741 30.1607 49.1775 30.1607C48.1056 30.1607 47.0472 29.9999 46.0022 29.6784C44.9572 29.3569 44.0193 28.9013 43.1887 28.3118L44.4146 25.9203C44.5352 26.0409 44.7495 26.2017 45.0577 26.4027C45.3792 26.5902 45.7543 26.7845 46.1831 26.9855C46.6118 27.173 47.0874 27.3338 47.6099 27.4678C48.1324 27.6018 48.6683 27.6687 49.2176 27.6687C50.745 27.6687 51.5086 27.1797 51.5086 26.2017C51.5086 25.8935 51.4216 25.6323 51.2474 25.4179C51.0732 25.2036 50.8254 25.016 50.5038 24.8552C50.1823 24.6945 49.7937 24.5471 49.3382 24.4131C48.8827 24.2791 48.3736 24.1318 47.8109 23.971C47.1276 23.7834 46.5314 23.5824 46.0223 23.3681C45.5266 23.1403 45.1113 22.8791 44.7763 22.5843C44.4414 22.2762 44.1868 21.9278 44.0126 21.5393C43.8519 21.1374 43.7715 20.6618 43.7715 20.1124C43.7715 19.389 43.9055 18.7459 44.1734 18.1832C44.4414 17.6205 44.8098 17.1516 45.2787 16.7764C45.761 16.4013 46.317 16.1199 46.9467 15.9324C47.5764 15.7314 48.253 15.6309 48.9765 15.6309C49.9813 15.6309 50.9058 15.7917 51.7498 16.1132C52.5939 16.4214 53.3307 16.7898 53.9604 17.2185L52.7345 19.4694ZM63.397 15.7314H65.8488L71.2748 29.9999H68.4211L67.0948 26.4429H62.1108L60.8045 29.9999H57.9508L63.397 15.7314ZM66.5923 24.4935L64.6229 18.8866L62.573 24.4935H66.5923ZM85.1125 18.1631H80.5506V29.9999H77.7974V18.1631H73.2355V15.7314H85.1125V18.1631ZM95.3203 30.1004C94.2753 30.1004 93.3241 29.8995 92.4666 29.4975C91.6226 29.0822 90.8924 28.5396 90.2761 27.8697C89.6732 27.1864 89.2043 26.4094 88.8693 25.5385C88.5344 24.6677 88.3669 23.7767 88.3669 22.8657C88.3669 21.9144 88.5411 21.0034 88.8894 20.1325C89.2512 19.2617 89.7402 18.4913 90.3565 17.8214C90.9862 17.1516 91.7297 16.6224 92.5872 16.2338C93.4446 15.8319 94.3758 15.6309 95.3806 15.6309C96.4122 15.6309 97.3501 15.8453 98.1941 16.274C99.0516 16.6893 99.7818 17.2386 100.385 17.9219C100.988 18.6052 101.456 19.3823 101.791 20.2531C102.126 21.124 102.294 22.0082 102.294 22.9059C102.294 23.8571 102.12 24.7681 101.771 25.639C101.423 26.4964 100.941 27.2601 100.324 27.93C99.7081 28.5865 98.9712 29.1157 98.1137 29.5176C97.2563 29.9062 96.3252 30.1004 95.3203 30.1004ZM91.1804 22.8657C91.1804 23.482 91.2742 24.0782 91.4618 24.6543C91.6494 25.2304 91.9173 25.7395 92.2657 26.1816C92.6274 26.6237 93.0628 26.9788 93.5719 27.2467C94.0944 27.5147 94.6839 27.6486 95.3404 27.6486C96.0103 27.6486 96.5998 27.5147 97.1089 27.2467C97.6314 26.9654 98.0668 26.5969 98.4152 26.1414C98.7769 25.6859 99.0449 25.1768 99.2191 24.6141C99.4066 24.038 99.5004 23.4552 99.5004 22.8657C99.5004 22.2494 99.3999 21.6532 99.199 21.0771C99.0114 20.501 98.7367 19.9919 98.375 19.5497C98.0267 19.1076 97.5912 18.7593 97.0687 18.5047C96.5596 18.2368 95.9835 18.1028 95.3404 18.1028C94.6705 18.1028 94.0743 18.2435 93.5518 18.5248C93.0293 18.7928 92.5939 19.1545 92.2456 19.61C91.8972 20.0522 91.6293 20.5613 91.4417 21.1374C91.2675 21.7001 91.1804 22.2762 91.1804 22.8657ZM115.937 19.4694C115.843 19.3756 115.669 19.2483 115.414 19.0875C115.173 18.9268 114.871 18.7727 114.51 18.6253C114.161 18.4645 113.78 18.3306 113.364 18.2234C112.949 18.1162 112.527 18.0626 112.098 18.0626C111.334 18.0626 110.765 18.2033 110.39 18.4846C110.015 18.766 109.827 19.1612 109.827 19.6703C109.827 19.9651 109.894 20.2129 110.028 20.4139C110.176 20.6015 110.383 20.7689 110.651 20.9163C110.919 21.0637 111.254 21.1977 111.656 21.3182C112.071 21.4388 112.547 21.5661 113.083 21.7001C113.78 21.8876 114.409 22.0886 114.972 22.303C115.548 22.5173 116.03 22.7853 116.419 23.1068C116.821 23.4284 117.129 23.8169 117.343 24.2724C117.558 24.7146 117.665 25.2639 117.665 25.9203C117.665 26.684 117.517 27.3405 117.223 27.8898C116.941 28.4257 116.553 28.8611 116.057 29.1961C115.575 29.531 115.012 29.7789 114.369 29.9396C113.739 30.087 113.076 30.1607 112.379 30.1607C111.308 30.1607 110.249 29.9999 109.204 29.6784C108.159 29.3569 107.221 28.9013 106.391 28.3118L107.617 25.9203C107.737 26.0409 107.952 26.2017 108.26 26.4027C108.581 26.5902 108.956 26.7845 109.385 26.9855C109.814 27.173 110.289 27.3338 110.812 27.4678C111.334 27.6018 111.87 27.6687 112.42 27.6687C113.947 27.6687 114.711 27.1797 114.711 26.2017C114.711 25.8935 114.624 25.6323 114.449 25.4179C114.275 25.2036 114.027 25.016 113.706 24.8552C113.384 24.6945 112.996 24.5471 112.54 24.4131C112.085 24.2791 111.576 24.1318 111.013 23.971C110.33 23.7834 109.733 23.5824 109.224 23.3681C108.729 23.1403 108.313 22.8791 107.978 22.5843C107.643 22.2762 107.389 21.9278 107.215 21.5393C107.054 21.1374 106.973 20.6618 106.973 20.1124C106.973 19.389 107.107 18.7459 107.375 18.1832C107.643 17.6205 108.012 17.1516 108.481 16.7764C108.963 16.4013 109.519 16.1199 110.149 15.9324C110.778 15.7314 111.455 15.6309 112.178 15.6309C113.183 15.6309 114.108 15.7917 114.952 16.1132C115.796 16.4214 116.533 16.7898 117.162 17.2185L115.937 19.4694ZM134.773 15.7314V29.9999H132.019V23.9107H125.548V29.9999H122.775V15.7314H125.548V21.4991H132.019V15.7314H134.773ZM140.764 29.9999V15.7314H143.537V29.9999H140.764Z" fill="white"/>
</g>
<defs>
<filter id="filter0_d_159_3143" x="147.705" y="0.804506" width="39.4113" height="44.0198" filterUnits="userSpaceOnUse" color-interpolation-filters="sRGB">
<feFlood flood-opacity="0" result="BackgroundImageFix"/>
<feColorMatrix in="SourceAlpha" type="matrix" values="0 0 0 0 0 0 0 0 0 0 0 0 0 0 0 0 0 0 127 0" result="hardAlpha"/>
<feOffset/>
<feGaussianBlur stdDeviation="6.59221"/>
<feComposite in2="hardAlpha" operator="out"/>
<feColorMatrix type="matrix" values="0 0 0 0 0.121917 0 0 0 0 0.870833 0 0 0 0 0 0 0 0 0.8 0"/>
<feBlend mode="normal" in2="BackgroundImageFix" result="effect1_dropShadow_159_3143"/>
<feBlend mode="normal" in="SourceGraphic" in2="effect1_dropShadow_159_3143" result="shape"/>
</filter>
<filter id="filter1_d_159_3143" x="0.882479" y="0.918581" width="39.4133" height="44.0198" filterUnits="userSpaceOnUse" color-interpolation-filters="sRGB">
<feFlood flood-opacity="0" result="BackgroundImageFix"/>
<feColorMatrix in="SourceAlpha" type="matrix" values="0 0 0 0 0 0 0 0 0 0 0 0 0 0 0 0 0 0 127 0" result="hardAlpha"/>
<feOffset/>
<feGaussianBlur stdDeviation="6.59221"/>
<feComposite in2="hardAlpha" operator="out"/>
<feColorMatrix type="matrix" values="0 0 0 0 0.121917 0 0 0 0 0.870833 0 0 0 0 0 0 0 0 0.8 0"/>
<feBlend mode="normal" in2="BackgroundImageFix" result="effect1_dropShadow_159_3143"/>
<feBlend mode="normal" in="SourceGraphic" in2="effect1_dropShadow_159_3143" result="shape"/>
</filter>
<filter id="filter2_d_159_3143" x="34.4509" y="6.8933" width="117.824" height="32.005" filterUnits="userSpaceOnUse" color-interpolation-filters="sRGB">
<feFlood flood-opacity="0" result="BackgroundImageFix"/>
<feColorMatrix in="SourceAlpha" type="matrix" values="0 0 0 0 0 0 0 0 0 0 0 0 0 0 0 0 0 0 127 0" result="hardAlpha"/>
<feOffset/>
<feGaussianBlur stdDeviation="4.36881"/>
<feComposite in2="hardAlpha" operator="out"/>
<feColorMatrix type="matrix" values="0 0 0 0 0.121917 0 0 0 0 0.870833 0 0 0 0 0 0 0 0 0.8 0"/>
<feBlend mode="normal" in2="BackgroundImageFix" result="effect1_dropShadow_159_3143"/>
<feBlend mode="normal" in="SourceGraphic" in2="effect1_dropShadow_159_3143" result="shape"/>
</filter>
</defs>
</svg>
