<svg width="392" height="73" viewBox="0 0 392 73" fill="none" xmlns="http://www.w3.org/2000/svg">
<g filter="url(#filter0_d_101_7071)">
<path d="M377.838 34.2143L347.889 13.4723L347.801 24.8583L363.908 36.4031L347.628 47.1492L347.534 59.1767L377.798 39.4262L377.838 34.2143Z" fill="white"/>
</g>
<g filter="url(#filter1_d_101_7071)">
<path d="M14.1944 33.9193L44.4617 13.7664L44.3728 25.1524L28.0886 36.3804L44.1988 47.4433L44.1049 59.4707L14.1537 39.1313L14.1944 33.9193Z" fill="white"/>
</g>
<g filter="url(#filter2_d_101_7071)">
<path d="M97.379 27.4757C97.155 27.2517 96.739 26.9477 96.131 26.5637C95.555 26.1797 94.835 25.8117 93.971 25.4597C93.139 25.1077 92.227 24.8037 91.235 24.5477C90.243 24.2597 89.235 24.1157 88.211 24.1157C86.419 24.1157 85.059 24.4517 84.131 25.1237C83.235 25.7957 82.787 26.7397 82.787 27.9557C82.787 28.8837 83.075 29.6197 83.651 30.1637C84.227 30.7077 85.091 31.1717 86.243 31.5557C87.395 31.9397 88.835 32.3557 90.563 32.8037C92.803 33.3477 94.739 34.0197 96.371 34.8197C98.035 35.5877 99.299 36.6117 100.163 37.8917C101.059 39.1397 101.507 40.8037 101.507 42.8837C101.507 44.7077 101.171 46.2757 100.499 47.5877C99.827 48.8677 98.899 49.9077 97.715 50.7077C96.531 51.5077 95.187 52.0997 93.683 52.4837C92.179 52.8357 90.579 53.0117 88.883 53.0117C87.187 53.0117 85.491 52.8357 83.795 52.4837C82.099 52.1317 80.467 51.6357 78.899 50.9957C77.331 50.3237 75.891 49.5237 74.579 48.5957L77.507 42.8837C77.795 43.1717 78.307 43.5557 79.043 44.0357C79.779 44.4837 80.675 44.9477 81.731 45.4277C82.787 45.8757 83.939 46.2597 85.187 46.5797C86.435 46.8997 87.699 47.0597 88.979 47.0597C90.771 47.0597 92.131 46.7557 93.059 46.1477C93.987 45.5397 94.451 44.6757 94.451 43.5557C94.451 42.5317 94.083 41.7317 93.347 41.1557C92.611 40.5797 91.587 40.0837 90.275 39.6677C88.963 39.2197 87.411 38.7397 85.619 38.2277C83.475 37.6197 81.683 36.9477 80.243 36.2117C78.803 35.4437 77.731 34.4837 77.027 33.3317C76.323 32.1797 75.971 30.7397 75.971 29.0117C75.971 26.6757 76.515 24.7237 77.603 23.1557C78.723 21.5557 80.227 20.3557 82.115 19.5557C84.003 18.7237 86.099 18.3077 88.403 18.3077C90.003 18.3077 91.507 18.4837 92.915 18.8357C94.355 19.1877 95.699 19.6517 96.9471 20.2277C98.195 20.8037 99.315 21.4277 100.307 22.0997L97.379 27.4757ZM122.227 18.5477H128.947L141.475 52.6277H134.659L131.491 44.1317H119.587L116.467 52.6277H109.651L122.227 18.5477ZM130.291 39.4757L125.587 25.4117L120.691 39.4757H130.291ZM174.713 24.3557H163.817V52.6277H157.241V24.3557H146.345V18.5477H174.713V24.3557ZM199.891 52.8677C197.395 52.8677 195.123 52.3877 193.075 51.4277C191.059 50.4677 189.315 49.1717 187.843 47.5397C186.403 45.8757 185.283 44.0197 184.483 41.9717C183.683 39.8917 183.283 37.7637 183.283 35.5877C183.283 33.3157 183.699 31.1557 184.531 29.1077C185.395 27.0277 186.563 25.1877 188.035 23.5877C189.539 21.9557 191.299 20.6757 193.315 19.7477C195.363 18.7877 197.603 18.3077 200.035 18.3077C202.499 18.3077 204.739 18.8037 206.755 19.7957C208.803 20.7877 210.547 22.1157 211.987 23.7797C213.427 25.4437 214.547 27.2997 215.347 29.3477C216.147 31.3957 216.547 33.5077 216.547 35.6837C216.547 37.9237 216.131 40.0837 215.299 42.1637C214.467 44.2117 213.299 46.0517 211.795 47.6837C210.323 49.2837 208.563 50.5477 206.515 51.4757C204.499 52.4037 202.291 52.8677 199.891 52.8677ZM190.003 35.5877C190.003 37.0597 190.227 38.4837 190.675 39.8597C191.123 41.2357 191.763 42.4677 192.595 43.5557C193.459 44.6117 194.499 45.4597 195.715 46.0997C196.963 46.7077 198.371 47.0117 199.939 47.0117C201.539 47.0117 202.963 46.6917 204.211 46.0517C205.459 45.3797 206.499 44.4997 207.331 43.4117C208.163 42.2917 208.787 41.0597 209.203 39.7157C209.651 38.3397 209.875 36.9637 209.875 35.5877C209.875 34.1157 209.635 32.7077 209.155 31.3637C208.707 29.9877 208.051 28.7717 207.187 27.7157C206.355 26.6277 205.315 25.7797 204.067 25.1717C202.851 24.5317 201.475 24.2117 199.939 24.2117C198.307 24.2117 196.867 24.5477 195.619 25.2197C194.403 25.8597 193.379 26.7237 192.547 27.8117C191.715 28.8997 191.075 30.1157 190.627 31.4597C190.211 32.8037 190.003 34.1797 190.003 35.5877ZM248.992 27.4757C248.768 27.2517 248.352 26.9477 247.744 26.5637C247.168 26.1797 246.448 25.8117 245.584 25.4597C244.752 25.1077 243.84 24.8037 242.848 24.5477C241.856 24.2597 240.848 24.1157 239.824 24.1157C238.032 24.1157 236.672 24.4517 235.744 25.1237C234.848 25.7957 234.4 26.7397 234.4 27.9557C234.4 28.8837 234.688 29.6197 235.264 30.1637C235.84 30.7077 236.704 31.1717 237.856 31.5557C239.008 31.9397 240.448 32.3557 242.176 32.8037C244.416 33.3477 246.352 34.0197 247.984 34.8197C249.648 35.5877 250.912 36.6117 251.776 37.8917C252.672 39.1397 253.12 40.8037 253.12 42.8837C253.12 44.7077 252.784 46.2757 252.112 47.5877C251.44 48.8677 250.512 49.9077 249.328 50.7077C248.144 51.5077 246.8 52.0997 245.296 52.4837C243.792 52.8357 242.192 53.0117 240.496 53.0117C238.8 53.0117 237.104 52.8357 235.408 52.4837C233.712 52.1317 232.08 51.6357 230.512 50.9957C228.944 50.3237 227.504 49.5237 226.192 48.5957L229.12 42.8837C229.408 43.1717 229.92 43.5557 230.656 44.0357C231.392 44.4837 232.288 44.9477 233.344 45.4277C234.4 45.8757 235.552 46.2597 236.8 46.5797C238.048 46.8997 239.312 47.0597 240.592 47.0597C242.384 47.0597 243.744 46.7557 244.672 46.1477C245.6 45.5397 246.064 44.6757 246.064 43.5557C246.064 42.5317 245.696 41.7317 244.96 41.1557C244.224 40.5797 243.2 40.0837 241.888 39.6677C240.576 39.2197 239.024 38.7397 237.232 38.2277C235.088 37.6197 233.296 36.9477 231.856 36.2117C230.416 35.4437 229.344 34.4837 228.64 33.3317C227.936 32.1797 227.584 30.7397 227.584 29.0117C227.584 26.6757 228.128 24.7237 229.216 23.1557C230.336 21.5557 231.84 20.3557 233.728 19.5557C235.616 18.7237 237.712 18.3077 240.016 18.3077C241.616 18.3077 243.12 18.4837 244.528 18.8357C245.968 19.1877 247.312 19.6517 248.56 20.2277C249.808 20.8037 250.928 21.4277 251.92 22.0997L248.992 27.4757ZM293.981 18.5477V52.6277H287.405V38.0837H271.949V52.6277H265.325V18.5477H271.949V32.3237H287.405V18.5477H293.981ZM308.291 52.6277V18.5477H314.915V52.6277H308.291Z" fill="white"/>
</g>
<defs>
<filter id="filter0_d_101_7071" x="334.35" y="0.287874" width="56.6725" height="72.0732" filterUnits="userSpaceOnUse" color-interpolation-filters="sRGB">
<feFlood flood-opacity="0" result="BackgroundImageFix"/>
<feColorMatrix in="SourceAlpha" type="matrix" values="0 0 0 0 0 0 0 0 0 0 0 0 0 0 0 0 0 0 127 0" result="hardAlpha"/>
<feOffset/>
<feGaussianBlur stdDeviation="6.59221"/>
<feComposite in2="hardAlpha" operator="out"/>
<feColorMatrix type="matrix" values="0 0 0 0 0.121917 0 0 0 0 0.870833 0 0 0 0 0 0 0 0 0.8 0"/>
<feBlend mode="normal" in2="BackgroundImageFix" result="effect1_dropShadow_101_7071"/>
<feBlend mode="normal" in="SourceGraphic" in2="effect1_dropShadow_101_7071" result="shape"/>
</filter>
<filter id="filter1_d_101_7071" x="0.969393" y="0.581942" width="56.6769" height="72.0732" filterUnits="userSpaceOnUse" color-interpolation-filters="sRGB">
<feFlood flood-opacity="0" result="BackgroundImageFix"/>
<feColorMatrix in="SourceAlpha" type="matrix" values="0 0 0 0 0 0 0 0 0 0 0 0 0 0 0 0 0 0 127 0" result="hardAlpha"/>
<feOffset/>
<feGaussianBlur stdDeviation="6.59221"/>
<feComposite in2="hardAlpha" operator="out"/>
<feColorMatrix type="matrix" values="0 0 0 0 0.121917 0 0 0 0 0.870833 0 0 0 0 0 0 0 0 0.8 0"/>
<feBlend mode="normal" in2="BackgroundImageFix" result="effect1_dropShadow_101_7071"/>
<feBlend mode="normal" in="SourceGraphic" in2="effect1_dropShadow_101_7071" result="shape"/>
</filter>
<filter id="filter2_d_101_7071" x="65.8415" y="9.57012" width="257.811" height="52.1792" filterUnits="userSpaceOnUse" color-interpolation-filters="sRGB">
<feFlood flood-opacity="0" result="BackgroundImageFix"/>
<feColorMatrix in="SourceAlpha" type="matrix" values="0 0 0 0 0 0 0 0 0 0 0 0 0 0 0 0 0 0 127 0" result="hardAlpha"/>
<feOffset/>
<feGaussianBlur stdDeviation="4.36881"/>
<feComposite in2="hardAlpha" operator="out"/>
<feColorMatrix type="matrix" values="0 0 0 0 0.121917 0 0 0 0 0.870833 0 0 0 0 0 0 0 0 0.8 0"/>
<feBlend mode="normal" in2="BackgroundImageFix" result="effect1_dropShadow_101_7071"/>
<feBlend mode="normal" in="SourceGraphic" in2="effect1_dropShadow_101_7071" result="shape"/>
</filter>
</defs>
</svg>
