<svg width="17" height="16" viewBox="0 0 17 16" fill="none" xmlns="http://www.w3.org/2000/svg">
<path d="M4.53755 0.25H12.8625V9.85L7.65005 15.25L6.9188 14.6688C6.8438 14.6063 6.78755 14.5188 6.75005 14.4063C6.71255 14.2938 6.6938 14.1563 6.6938 13.9938V13.8063L7.53755 9.85H1.9313C1.6313 9.85 1.3688 9.7375 1.1438 9.5125C0.918799 9.2875 0.806299 9.025 0.806299 8.725V7.19052C0.806299 7.10101 0.796924 7.00938 0.778174 6.91563C0.759424 6.82188 0.768799 6.73125 0.806299 6.64375L3.1688 1.20625C3.27977 0.940625 3.46474 0.714844 3.72371 0.528906C3.98266 0.342969 4.25394 0.25 4.53755 0.25ZM11.7375 1.375H4.2938L1.9313 6.98125V8.725H8.92505L7.9313 13.3938L11.7375 9.38125V1.375ZM12.8625 9.85V8.725H15.3563V1.375H12.8625V0.25H16.4813V9.85H12.8625Z" fill="#C5C5D1"/>
</svg>
