<svg width="17" height="16" viewBox="0 0 17 16" fill="none" xmlns="http://www.w3.org/2000/svg">
<path d="M12.425 15.75H4.09995V6.15L9.31245 0.75L10.0437 1.33125C10.1187 1.39375 10.175 1.48125 10.2125 1.59375C10.25 1.70625 10.2687 1.84375 10.2687 2.00625V2.19375L9.42495 6.15H15.0312C15.3312 6.15 15.5937 6.2625 15.8187 6.4875C16.0437 6.7125 16.1562 6.975 16.1562 7.275V8.80948C16.1562 8.89899 16.1656 8.99063 16.1843 9.08438C16.2031 9.17813 16.1937 9.26875 16.1562 9.35625L13.7937 14.7938C13.6827 15.0594 13.4978 15.2852 13.2388 15.4711C12.9798 15.657 12.7086 15.75 12.425 15.75ZM5.22495 14.625H12.6687L15.0312 9.01875V7.275H8.03745L9.0312 2.60625L5.22495 6.61875V14.625ZM4.09995 6.15V7.275H1.6062V14.625H4.09995V15.75H0.481201V6.15H4.09995Z" fill="#C5C5D1"/>
</svg>
