<svg width="13" height="13" viewBox="0 0 13 13" fill="none" xmlns="http://www.w3.org/2000/svg">
<path d="M3.5 10.5C2.95 10.5 2.47917 10.3042 2.0875 9.9125C1.69583 9.52083 1.5 9.05 1.5 8.5V4.5C1.5 3.95 1.69583 3.47917 2.0875 3.0875C2.47917 2.69583 2.95 2.5 3.5 2.5H9.5C10.05 2.5 10.5208 2.69583 10.9125 3.0875C11.3042 3.47917 11.5 3.95 11.5 4.5V8.5C11.5 9.05 11.3042 9.52083 10.9125 9.9125C10.5208 10.3042 10.05 10.5 9.5 10.5H3.5ZM3.5 4.625H9.5C9.74167 4.625 9.96875 4.6625 10.1813 4.7375C10.3938 4.8125 10.5833 4.92083 10.75 5.0625V4.5C10.75 4.15 10.6292 3.85417 10.3875 3.6125C10.1458 3.37083 9.85 3.25 9.5 3.25H3.5C3.15 3.25 2.85417 3.37083 2.6125 3.6125C2.37083 3.85417 2.25 4.15 2.25 4.5V5.0625C2.41667 4.92083 2.60625 4.8125 2.81875 4.7375C3.03125 4.6625 3.25833 4.625 3.5 4.625ZM2.2875 6.325L8.25 7.7625C8.30833 7.77917 8.36875 7.78125 8.43125 7.76875C8.49375 7.75625 8.54583 7.72917 8.5875 7.6875L10.5875 6.0125C10.4792 5.82083 10.3292 5.66667 10.1375 5.55C9.94583 5.43333 9.73333 5.375 9.5 5.375H3.5C3.20833 5.375 2.95 5.46458 2.725 5.64375C2.5 5.82292 2.35417 6.05 2.2875 6.325Z" fill="#919EAB"/>
</svg>
